HIERARCHY
ROOT Hips
{
	OFFSET 0.000000 83.214638 0.000000
	CHANNELS 6 Xposition Yposition Zposition Xrotation Yrotation Zrotation
	JOINT Pelvis
	{
		OFFSET 0.000000 0.000000 0.000000
		CHANNELS 3 Xrotation Yrotation Zrotation
		JOINT LeftUpLeg
		{
			OFFSET 8.479700 -4.795502 -0.379100
			CHANNELS 3 Xrotation Yrotation Zrotation
			JOINT LeftLeg
			{
				OFFSET 0.024144 -32.555107 0.112900
				CHANNELS 3 Xrotation Yrotation Zrotation
				JOINT LeftFoot
				{
					OFFSET -0.024144 -32.638630 -3.012600
					CHANNELS 3 Xrotation Yrotation Zrotation
					JOINT LeftToeBase
					{
						OFFSET 0.970200 -13.225400 11.864200
						CHANNELS 3 Xrotation Yrotation Zrotation
						End Site
						{
							OFFSET 0.000000 12.319262 0.000000
						}
					}
					JOINT LFootTongue
					{
						OFFSET 1.142400 -1.059800 6.665200
						CHANNELS 3 Xrotation Yrotation Zrotation
						End Site
						{
							OFFSET 0.000000 12.319262 0.000000
						}
					}
				}
				JOINT LeftPantLeg
				{
					OFFSET 0.918482 -16.533964 -2.284700
					CHANNELS 3 Xrotation Yrotation Zrotation
					End Site
					{
						OFFSET 0.350399 24.744368 0.000000
					}
				}
			}
		}
		JOINT RightUpLeg
		{
			OFFSET -8.479700 -4.795502 -0.379100
			CHANNELS 3 Xrotation Yrotation Zrotation
			JOINT RightLeg
			{
				OFFSET -0.023144 -32.555092 0.112900
				CHANNELS 3 Xrotation Yrotation Zrotation
				JOINT RightFoot
				{
					OFFSET 0.023144 -32.638641 -3.012700
					CHANNELS 3 Xrotation Yrotation Zrotation
					JOINT RightToeBase
					{
						OFFSET -0.970200 -13.225400 11.864200
						CHANNELS 3 Xrotation Yrotation Zrotation
						End Site
						{
							OFFSET 0.000000 12.319244 0.000000
						}
					}
					JOINT RFootTongue
					{
						OFFSET -1.142200 -1.059800 6.665200
						CHANNELS 3 Xrotation Yrotation Zrotation
						End Site
						{
							OFFSET 0.000000 12.319243 0.000000
						}
					}
				}
				JOINT RightPantLeg
				{
					OFFSET -0.919482 -16.533978 -2.284800
					CHANNELS 3 Xrotation Yrotation Zrotation
					End Site
					{
						OFFSET -0.350400 24.744419 0.000000
					}
				}
			}
		}
	}
	JOINT Spine
	{
		OFFSET 0.000000 7.722000 1.166200
		CHANNELS 3 Xrotation Yrotation Zrotation
		JOINT Spine1
		{
			OFFSET 0.000000 12.024101 0.248800
			CHANNELS 3 Xrotation Yrotation Zrotation
			JOINT Spine2
			{
				OFFSET 0.000000 11.502998 -0.491200
				CHANNELS 3 Xrotation Yrotation Zrotation
				JOINT Neck
				{
					OFFSET 0.000000 18.430702 -3.123100
					CHANNELS 3 Xrotation Yrotation Zrotation
					JOINT Head
					{
						OFFSET 0.000000 9.051102 1.034000
						CHANNELS 3 Xrotation Yrotation Zrotation
						JOINT HairB
						{
							OFFSET 0.208400 24.786102 24.822300
							CHANNELS 3 Xrotation Yrotation Zrotation
							End Site
							{
								OFFSET 0.000000 32.263779 0.000000
							}
						}
						JOINT HairA
						{
							OFFSET -7.081100 24.428299 23.196600
							CHANNELS 3 Xrotation Yrotation Zrotation
							End Site
							{
								OFFSET 0.000000 32.263779 0.000000
							}
						}
						JOINT Hat
						{
							OFFSET 16.728800 15.048294 -15.439601
							CHANNELS 3 Xrotation Yrotation Zrotation
							End Site
							{
								OFFSET 0.000000 32.263779 0.000000
							}
						}
					}
				}
				JOINT LeftShoulder
				{
					OFFSET 6.197800 13.665199 -4.064700
					CHANNELS 3 Xrotation Yrotation Zrotation
					JOINT LeftArm
					{
						OFFSET 7.778100 -0.187103 -1.709300
						CHANNELS 3 Xrotation Yrotation Zrotation
						JOINT LeftForeArm
						{
							OFFSET 22.049376 0.000000 0.000000
							CHANNELS 3 Xrotation Yrotation Zrotation
							JOINT LeftHand
							{
								OFFSET 23.009392 0.000000 0.000000
								CHANNELS 3 Xrotation Yrotation Zrotation
								JOINT LeftHandThumb1
								{
									OFFSET 3.507191 -2.063065 3.133727
									CHANNELS 3 Xrotation Yrotation Zrotation
									JOINT LeftHandThumb2
									{
										OFFSET 3.101337 -1.790558 1.790558
										CHANNELS 3 Xrotation Yrotation Zrotation
										JOINT LeftHandThumb3
										{
											OFFSET 3.058640 -1.765907 1.765906
											CHANNELS 3 Xrotation Yrotation Zrotation
											End Site
											{
												OFFSET -0.415260 3.926476 -0.049563
											}
										}
									}
								}
								JOINT LeftHandIndex1
								{
									OFFSET 11.334419 -0.901459 3.706815
									CHANNELS 3 Xrotation Yrotation Zrotation
									JOINT LeftHandIndex2
									{
										OFFSET 3.283112 0.000000 0.000000
										CHANNELS 3 Xrotation Yrotation Zrotation
										JOINT LeftHandIndex3
										{
											OFFSET 3.323853 0.000000 0.000000
											CHANNELS 3 Xrotation Yrotation Zrotation
											End Site
											{
												OFFSET -1.135597 3.097809 0.402452
											}
										}
									}
								}
								JOINT LeftHandMiddle1
								{
									OFFSET 11.335861 0.000000 0.000000
									CHANNELS 3 Xrotation Yrotation Zrotation
									JOINT LeftHandMiddle2
									{
										OFFSET 3.410492 0.000000 0.000000
										CHANNELS 3 Xrotation Yrotation Zrotation
										JOINT LeftHandMiddle3
										{
											OFFSET 3.312172 0.000000 0.000000
											CHANNELS 3 Xrotation Yrotation Zrotation
											End Site
											{
												OFFSET -1.150200 3.080154 0.400270
											}
										}
									}
								}
								JOINT LeftHandRing1
								{
									OFFSET 11.514786 -0.013176 -3.003090
									CHANNELS 3 Xrotation Yrotation Zrotation
									JOINT LeftHandRing2
									{
										OFFSET 3.053307 0.000000 0.000000
										CHANNELS 3 Xrotation Yrotation Zrotation
										JOINT LeftHandRing3
										{
											OFFSET 3.295807 0.000000 0.000000
											CHANNELS 3 Xrotation Yrotation Zrotation
											End Site
											{
												OFFSET -1.281006 3.013344 0.375733
											}
										}
									}
								}
								JOINT LeftHandPinky1
								{
									OFFSET 10.518692 -0.960396 -5.730441
									CHANNELS 3 Xrotation Yrotation Zrotation
									JOINT LeftHandPinky2
									{
										OFFSET 2.861649 0.000000 0.000000
										CHANNELS 3 Xrotation Yrotation Zrotation
										JOINT LeftHandPinky3
										{
											OFFSET 2.863380 0.000000 0.000000
											CHANNELS 3 Xrotation Yrotation Zrotation
											End Site
											{
												OFFSET -0.843597 2.711159 0.369971
											}
										}
									}
								}
							}
							JOINT LSleeve
							{
								OFFSET 6.676277 -0.344902 -1.011730
								CHANNELS 3 Xrotation Yrotation Zrotation
								End Site
								{
									OFFSET 0.000000 14.885353 0.000000
								}
							}
						}
					}
				}
				JOINT RightShoulder
				{
					OFFSET -6.197800 13.665199 -4.064700
					CHANNELS 3 Xrotation Yrotation Zrotation
					JOINT RightArm
					{
						OFFSET -7.778100 -0.187103 -1.709300
						CHANNELS 3 Xrotation Yrotation Zrotation
						JOINT RightForeArm
						{
							OFFSET -22.049376 0.000000 0.000000
							CHANNELS 3 Xrotation Yrotation Zrotation
							JOINT RightHand
							{
								OFFSET -23.009392 0.000000 0.000000
								CHANNELS 3 Xrotation Yrotation Zrotation
								JOINT RightHandThumb1
								{
									OFFSET -3.507191 -2.063065 3.133727
									CHANNELS 3 Xrotation Yrotation Zrotation
									JOINT RightHandThumb2
									{
										OFFSET -3.101337 -1.790558 1.790558
										CHANNELS 3 Xrotation Yrotation Zrotation
										JOINT RightHandThumb3
										{
											OFFSET -3.058640 -1.765907 1.765906
											CHANNELS 3 Xrotation Yrotation Zrotation
											End Site
											{
												OFFSET 0.415260 3.926476 -0.049563
											}
										}
									}
								}
								JOINT RightHandIndex1
								{
									OFFSET -11.334419 -0.901459 3.706815
									CHANNELS 3 Xrotation Yrotation Zrotation
									JOINT RightHandIndex2
									{
										OFFSET -3.283112 0.000000 0.000000
										CHANNELS 3 Xrotation Yrotation Zrotation
										JOINT RightHandIndex3
										{
											OFFSET -3.323853 0.000000 0.000000
											CHANNELS 3 Xrotation Yrotation Zrotation
											End Site
											{
												OFFSET 1.135597 3.097809 0.402452
											}
										}
									}
								}
								JOINT RightHandMiddle1
								{
									OFFSET -11.335861 0.000000 0.000000
									CHANNELS 3 Xrotation Yrotation Zrotation
									JOINT RightHandMiddle2
									{
										OFFSET -3.410492 0.000000 0.000000
										CHANNELS 3 Xrotation Yrotation Zrotation
										JOINT RightHandMiddle3
										{
											OFFSET -3.312172 0.000000 0.000000
											CHANNELS 3 Xrotation Yrotation Zrotation
											End Site
											{
												OFFSET 1.150200 3.080154 0.400270
											}
										}
									}
								}
								JOINT RightHandRing1
								{
									OFFSET -11.514786 -0.013176 -3.003090
									CHANNELS 3 Xrotation Yrotation Zrotation
									JOINT RightHandRing2
									{
										OFFSET -3.053307 0.000000 0.000000
										CHANNELS 3 Xrotation Yrotation Zrotation
										JOINT RightHandRing3
										{
											OFFSET -3.295807 0.000000 0.000000
											CHANNELS 3 Xrotation Yrotation Zrotation
											End Site
											{
												OFFSET 1.281006 3.013344 0.375733
											}
										}
									}
								}
								JOINT RightHandPinky1
								{
									OFFSET -10.518692 -0.960396 -5.730441
									CHANNELS 3 Xrotation Yrotation Zrotation
									JOINT RightHandPinky2
									{
										OFFSET -2.861649 0.000000 0.000000
										CHANNELS 3 Xrotation Yrotation Zrotation
										JOINT RightHandPinky3
										{
											OFFSET -2.863380 0.000000 0.000000
											CHANNELS 3 Xrotation Yrotation Zrotation
											End Site
											{
												OFFSET 0.843597 2.711159 0.369971
											}
										}
									}
								}
							}
							JOINT RSleeve
							{
								OFFSET -6.676277 -0.344902 -1.011730
								CHANNELS 3 Xrotation Yrotation Zrotation
								End Site
								{
									OFFSET 0.000000 14.885353 0.000000
								}
							}
						}
					}
				}
				JOINT Backpack
				{
					OFFSET 0.000000 -2.471497 36.677502
					CHANNELS 3 Xrotation Yrotation Zrotation
					End Site
					{
						OFFSET 0.000000 20.427315 0.000000
					}
				}
				JOINT Hood
				{
					OFFSET 0.000000 18.754097 -10.431000
					CHANNELS 3 Xrotation Yrotation Zrotation
					JOINT Hood1
					{
						OFFSET 0.000000 -5.011002 -7.685901
						CHANNELS 3 Xrotation Yrotation Zrotation
						End Site
						{
							OFFSET 0.000000 9.175140 0.000000
						}
					}
				}
				JOINT LHoodieString
				{
					OFFSET 5.250500 16.397697 3.089900
					CHANNELS 3 Xrotation Yrotation Zrotation
					JOINT LHoodieString1
					{
						OFFSET 0.257700 -6.364304 3.694600
						CHANNELS 3 Xrotation Yrotation Zrotation
						JOINT LHoodieString2
						{
							OFFSET 0.000000 -9.643799 2.679100
							CHANNELS 3 Xrotation Yrotation Zrotation
							End Site
							{
								OFFSET 0.000000 10.009018 0.000000
							}
						}
					}
				}
				JOINT RHoodieString
				{
					OFFSET -5.250500 16.397697 3.089900
					CHANNELS 3 Xrotation Yrotation Zrotation
					JOINT RHoodieString1
					{
						OFFSET -0.257700 -6.364304 3.694600
						CHANNELS 3 Xrotation Yrotation Zrotation
						JOINT RHoodieString2
						{
							OFFSET 0.000000 -9.643799 2.679100
							CHANNELS 3 Xrotation Yrotation Zrotation
							End Site
							{
								OFFSET 0.000000 10.009018 0.000000
							}
						}
					}
				}
			}
			JOINT LBackpack_Strap
			{
				OFFSET 15.223200 -7.719803 -6.610900
				CHANNELS 3 Xrotation Yrotation Zrotation
				End Site
				{
					OFFSET 0.000000 16.040596 0.000000
				}
			}
			JOINT RBackpack_Strap
			{
				OFFSET -15.223000 -7.719803 -6.610900
				CHANNELS 3 Xrotation Yrotation Zrotation
				End Site
				{
					OFFSET 0.000000 16.040596 0.000000
				}
			}
		}
	}
	JOINT BoyFacialAnim_Joint
	{
		OFFSET 1.000000 -82.208099 -1.550900
		CHANNELS 3 Xrotation Yrotation Zrotation
		End Site
		{
			OFFSET 0.000000 30.012791 0.000000
		}
	}
}
MOTION
Frames: 4
Frame Time: 0.033333
-0.169203 73.867676 0.174979 3.016503 -58.257347 6.570244 -0.000000 -0.000001 -0.000000 -35.250220 10.174953 24.287956 43.162014 -7.481536 -9.789252 -9.609335 -2.809810 -8.081527 -0.000000 -0.000000 -0.000000 -0.000000 -0.000000 -0.000000 0.000001 0.000002 -0.000001 -32.837880 -8.272632 -25.543123 48.058891 2.419825 -7.553183 -19.173167 2.835346 20.742694 0.000000 0.000000 0.000000 0.000000 0.000000 0.000000 -0.000001 0.000000 -0.000000 11.191554 0.111525 -2.787801 8.434585 0.027686 -5.592322 8.457044 0.027862 -5.591857 -21.556179 25.063391 12.062535 -0.293699 25.465607 -3.208666 0.000001 0.000000 -0.000000 0.000001 0.000000 -0.000000 0.000001 0.000000 -0.000000 -6.221660 -11.503765 -4.023790 -23.061809 9.568765 -36.639775 0.046128 -43.170173 -0.011132 22.743707 -5.685208 15.979219 -1.064195 -7.954977 8.490086 2.373384 19.986138 -2.038326 -0.000000 -0.000000 0.000000 13.340881 -1.006694 10.682284 -0.167580 0.303390 -31.105662 -0.000001 -0.000001 -0.000004 8.495446 -0.329578 -0.915331 0.231508 0.661231 -29.901854 0.000001 -0.000004 -0.000000 6.111742 3.150904 -16.210940 0.047088 0.322439 -30.125499 -0.000001 0.000001 -0.000005 -5.636021 7.709869 -13.878640 0.224354 0.276549 -46.588358 0.000000 0.000001 -0.000000 0.000001 0.000002 0.000000 -5.488226 10.658259 2.466478 -41.473667 -26.755753 30.079282 24.954532 111.863465 -23.307524 -8.702499 12.422683 -9.802065 0.265015 10.061080 -10.888474 1.383771 -17.412869 3.016245 0.000000 0.000003 0.000002 19.443622 11.174440 -13.340190 -0.118678 -0.322707 18.035594 0.000001 0.000000 -0.000002 4.320472 2.436956 -4.811721 0.349140 -0.461258 26.890354 0.000004 -0.000000 0.000003 -7.005612 -10.695142 5.719848 0.111907 -0.089166 26.155888 0.000002 -0.000001 0.000005 -19.433502 -20.238231 5.987892 0.223762 -0.085805 36.844595 -0.000003 -0.000001 0.000004 -0.000000 -0.000001 -0.000004 -0.000000 0.000000 0.000001 -0.000000 0.000000 0.000001 -0.000000 0.000000 0.000001 -0.000000 0.000000 0.000001 -0.000000 0.000000 -0.000000 -0.000000 0.000000 -0.000001 -0.000000 0.000000 0.000001 -0.000000 0.000000 -0.000000 -0.000000 0.000000 -0.000001 -0.000000 0.000002 -0.000001 -0.000000 0.000002 -0.000001 -0.000000 -0.000001 -0.000000 
-0.104560 73.368431 -0.079403 4.391118 -55.851659 6.874769 -0.000000 -0.000001 0.000000 -38.210988 8.140931 24.173639 45.107836 -8.369389 -9.097790 -9.608056 -2.796960 -8.133888 -0.000000 -0.000001 0.000000 -0.000000 -0.000001 0.000000 0.000000 0.000001 0.000001 -33.727655 -8.304264 -24.886267 49.808721 0.071343 -7.613142 -19.735439 2.623526 21.453134 0.000000 0.000002 -0.000000 0.000000 0.000002 -0.000000 0.000001 -0.000001 0.000001 11.163510 0.053442 -2.699586 8.375910 -0.075469 -5.406552 8.398388 -0.075311 -5.406081 -22.632025 23.922295 12.796640 -0.016105 25.002374 -3.235309 0.000000 0.000000 -0.000000 0.000000 0.000000 -0.000000 0.000000 0.000000 -0.000000 -6.132747 -12.323463 -3.595993 -24.014993 8.879258 -36.555022 -0.806919 -42.896535 -0.309700 22.510531 -5.587248 15.747537 -0.779084 -6.450625 8.793110 2.373382 19.986134 -2.038324 -0.000002 -0.000000 -0.000001 13.808483 -0.899351 8.201692 -0.158442 0.298242 -29.991330 -0.000000 0.000001 -0.000002 8.590760 0.651388 -2.208135 0.221979 0.660057 -29.528482 -0.000000 0.000001 -0.000003 6.316892 3.796309 -16.635406 0.044089 0.322790 -30.004177 -0.000002 0.000001 -0.000004 -5.112877 8.122062 -14.007246 0.218299 0.276472 -45.808101 0.000001 0.000000 -0.000002 0.000002 -0.000000 0.000002 -5.532475 10.651245 3.665760 -42.555094 -25.236939 30.468781 25.006047 111.143113 -23.093645 -8.434526 12.668584 -11.672573 -0.325188 9.876687 -11.719447 1.383817 -17.412825 3.016237 0.000000 -0.000005 0.000001 18.664716 10.362166 -11.332469 -0.113002 -0.322267 18.592620 -0.000001 0.000000 0.000000 4.209072 1.744397 -2.711713 0.344022 -0.467335 27.645308 0.000002 0.000001 -0.000000 -6.285372 -11.027216 8.354176 0.103012 -0.100526 27.602616 0.000003 -0.000001 0.000002 -17.965003 -20.815087 9.159627 0.219508 -0.092947 38.420477 -0.000002 -0.000002 -0.000000 -0.000000 -0.000004 -0.000003 -0.000000 0.000003 -0.000002 -0.000000 0.000003 -0.000002 -0.000000 0.000003 -0.000002 -0.000000 0.000003 -0.000002 -0.000000 0.000003 -0.000002 -0.000002 0.000001 0.000002 -0.000000 0.000003 -0.000002 -0.000000 0.000003 -0.000002 -0.000002 0.000001 0.000002 -0.000001 -0.000003 0.000002 -0.000001 -0.000003 0.000002 -0.000000 -0.000001 0.000000 
-0.206946 72.667206 -0.529249 5.571994 -52.454859 6.833221 -0.000000 0.000002 0.000000 -41.726971 5.896989 24.214709 47.067219 -10.231716 -8.732458 -9.379354 -2.842414 -7.913129 -0.000000 0.000001 0.000000 -0.000000 0.000001 0.000000 0.000000 0.000001 -0.000000 -34.737516 -7.874048 -24.066668 52.845781 -2.037846 -7.682494 -20.383183 2.367146 22.165224 0.000000 0.000001 0.000000 0.000000 0.000001 0.000000 0.000000 0.000003 -0.000002 11.101872 -0.075209 -2.498003 8.247788 -0.307871 -4.986733 8.270302 -0.307725 -4.986290 -25.066784 21.343317 14.417696 0.612580 23.762754 -3.219803 0.000000 -0.000000 0.000000 0.000000 -0.000000 0.000000 0.000000 -0.000000 0.000000 -5.956273 -14.438733 -2.640395 -26.320889 7.216962 -36.315668 -3.853420 -41.813838 -1.767711 21.877685 -5.241927 15.289358 -0.476140 -4.829673 9.139642 2.373381 19.986136 -2.038325 0.000000 0.000000 0.000000 14.419653 -0.980132 5.907257 -0.149505 0.292426 -28.592251 -0.000000 0.000000 -0.000002 8.772832 1.596106 -3.246687 0.210918 0.657960 -28.932736 0.000000 0.000002 0.000002 6.545561 4.400329 -16.728429 0.041013 0.322072 -29.640361 0.000001 0.000001 -0.000000 -4.603641 8.429971 -13.748698 0.211555 0.275928 -44.755986 0.000001 -0.000001 -0.000002 -0.000000 -0.000001 0.000005 -5.701989 10.762344 6.502086 -44.766716 -21.710079 32.083308 25.364691 109.238822 -22.967271 -7.619374 13.318515 -16.627669 -0.991077 9.772590 -12.626434 1.383821 -17.412872 3.016264 -0.000000 -0.000002 0.000001 17.957052 9.524082 -9.358329 -0.107356 -0.321757 19.138984 -0.000003 0.000001 -0.000002 4.144756 1.052522 -0.631654 0.339033 -0.473600 28.385254 0.000004 0.000003 0.000004 -5.569323 -11.323871 10.973114 0.094748 -0.112378 29.032600 0.000005 0.000002 0.000006 -16.500651 -21.307325 12.332667 0.215567 -0.100395 39.980041 0.000000 -0.000002 0.000003 0.000002 0.000000 -0.000002 -0.000002 0.000002 -0.000001 -0.000002 0.000002 -0.000001 -0.000002 0.000002 -0.000001 -0.000002 0.000002 -0.000001 -0.000002 0.000002 -0.000001 -0.000003 0.000000 -0.000000 -0.000002 0.000002 -0.000001 -0.000002 0.000002 -0.000001 -0.000003 0.000000 -0.000000 -0.000001 -0.000000 0.000001 -0.000001 -0.000000 0.000001 -0.000000 0.000002 0.000000 
-0.550556 71.761398 -1.107325 6.106082 -48.776635 6.509521 -0.000000 0.000002 -0.000000 -45.022524 3.930110 24.335795 48.913406 -12.717821 -8.867033 -9.127053 -2.931120 -7.487194 -0.000000 -0.000003 -0.000000 -0.000000 -0.000003 0.000000 0.000000 0.000003 0.000000 -36.011769 -6.062166 -23.690257 57.795572 -1.404612 -7.397815 -20.405778 2.292393 22.192195 -0.000000 -0.000003 0.000000 -0.000000 -0.000003 0.000000 0.000002 -0.000001 0.000003 11.020440 -0.210398 -2.275294 8.080697 -0.551496 -4.525595 8.103198 -0.551348 -4.525137 -27.518496 18.258769 16.109266 1.302570 22.332734 -3.105909 -0.000000 0.000000 0.000000 -0.000000 0.000000 0.000000 -0.000000 0.000000 0.000000 -5.785241 -17.549690 -1.786245 -29.113733 5.396036 -35.691041 -9.618982 -39.566125 -4.926012 20.930430 -4.511960 14.926485 -0.177482 -3.165627 9.493878 2.373386 19.986138 -2.038324 0.000001 -0.000000 -0.000001 15.073915 -1.163321 3.682567 -0.140555 0.286804 -27.092845 0.000001 0.000001 -0.000003 9.002525 2.523339 -4.200352 0.199381 0.655418 -28.258741 0.000001 0.000002 -0.000003 6.780276 4.990514 -16.706841 0.037946 0.320894 -29.191143 0.000002 -0.000003 -0.000003 -4.103149 8.708413 -13.356566 0.204565 0.274969 -43.608193 0.000001 0.000003 0.000000 -0.000000 -0.000001 0.000003 -5.978800 11.209229 9.818113 -46.629814 -17.608912 35.374410 26.498564 106.514116 -23.859114 -6.212904 14.184828 -23.712591 -1.655179 9.683613 -13.537560 1.383798 -17.412855 3.016228 0.000000 -0.000000 0.000001 17.315407 8.651956 -7.401898 -0.101753 -0.320998 19.685292 -0.000002 0.000002 0.000000 4.124763 0.358573 1.447041 0.334210 -0.479919 29.125088 0.000002 -0.000001 0.000001 -4.856013 -11.580147 13.598624 0.086774 -0.124409 30.462456 0.000004 0.000003 0.000001 -15.045476 -21.707530 15.527168 0.212012 -0.107886 41.539445 -0.000004 0.000001 0.000004 -0.000001 -0.000003 -0.000004 0.000002 0.000001 -0.000001 0.000002 0.000001 -0.000001 0.000002 0.000001 -0.000001 0.000002 0.000001 -0.000001 0.000002 0.000001 -0.000002 -0.000000 0.000000 0.000001 0.000002 0.000001 -0.000001 0.000002 0.000001 -0.000002 -0.000000 0.000000 0.000001 -0.000000 -0.000000 -0.000000 -0.000000 -0.000000 -0.000000 -0.000000 0.000002 -0.000000 
